<svg viewBox="0 0 1148 34" fill="none" xmlns="http://www.w3.org/2000/svg"><path d="M1120.3 0c-14.4 0-14.4 14-28.7 14-14.3 0-14.4-14-28.7-14-14.3 0-14.4 14-28.7 14-14.4 0-14.4-14-28.8-14s-14.4 14-28.7 14c-14.4 0-14.4-14-28.7-14-14.4 0-14.4 14-28.7 14-14.3 0-14.7-14-29-14-14.4 0-14.4 14-28.7 14-14.3 0-14.5-14-28.8-14-14.4 0-14.4 14-28.7 14-14.4 0-14.4-14-28.8-14s-14.4 14-28.7 14c-14.4 0-14.4-14-28.7-14-14.3 0-14.5 14-28.9 14-14.4 0-14.4-14-28.7-14-14.4 0-14.4 14-28.7 14-14.4 0-14.4-14-28.8-14s-14.4 14-28.7 14c-14.4 0-14.4-14-28.7-14-14.4 0-14.4 14-28.7 14-14.4 0-14.4-14-28.7-14-14.4 0-14.4 14-28.8 14s-14.4-14-28.8-14-14.4 14-28.8 14-14.4-14-28.8-14-14.4 14-28.8 14-14.4-14-28.8-14-14.4 14-28.8 14-14.4-14-28.8-14-14.4 14-28.7 14c-14.4 0-14.4-14-28.8-14s-14.4 14-28.8 14-14.4-14-28.8-14-14.4 14-28.8 14-14.4-14-28.8-14c-14 0-14 14-28.4 14-14.4 0-14.4-14-28.7-14-14.3 0-13.4 14-27.8 14v20h1148v-20c-14.4 0-13.4-14-27.7-14Z" fill="#fff"/></svg>