<svg viewBox="0 0 1050 23" fill="none" xmlns="http://www.w3.org/2000/svg"><path d="M1050 23c-8.22 0-12.51-4.6-15.98-8.3-3.1-3.3-5.39-5.7-10.22-5.7-4.93 0-7.13 2.4-10.23 5.7-3.47 3.7-7.76 8.3-15.98 8.3s-12.5-4.6-15.98-8.3c-3.1-3.3-5.38-5.7-10.22-5.7-4.84 0-7.13 2.4-10.23 5.7-3.47 3.7-7.76 8.3-15.98 8.3-8.21 0-12.5-4.6-15.98-8.3-3.1-3.3-5.38-5.7-10.22-5.7-4.93 0-7.12 2.4-10.23 5.7-3.47 3.7-7.76 8.3-15.98 8.3-8.21 0-12.5-4.6-15.97-8.3-3.1-3.3-5.4-5.7-10.23-5.7-4.93 0-7.12 2.4-10.23 5.7-3.83 3.7-8.12 8.3-16.34 8.3s-12.5-4.6-15.98-8.3c-3.1-3.3-5.38-5.7-10.22-5.7-4.93 0-7.13 2.4-10.23 5.7-3.47 3.7-7.76 8.3-15.98 8.3s-12.5-4.6-15.98-8.3c-3.1-3.3-5.38-5.7-10.22-5.7-4.93 0-7.13 2.4-10.23 5.7-3.65 3.7-7.94 8.3-16.16 8.3-8.22 0-12.5-4.6-15.98-8.3-3.1-3.3-5.38-5.7-10.22-5.7-4.93 0-7.13 2.4-10.23 5.7-3.47 3.7-7.76 8.3-15.98 8.3s-12.5-4.6-15.98-8.3c-3.1-3.3-5.38-5.7-10.22-5.7-4.84 0-7.13 2.4-10.23 5.7-3.56 3.7-7.94 8.3-16.16 8.3-8.22 0-12.5-4.6-15.98-8.3-3.1-3.3-5.38-5.7-10.22-5.7-4.93 0-7.13 2.4-10.23 5.7-3.47 3.7-7.76 8.3-15.98 8.3s-12.5-4.6-15.98-8.3c-3.1-3.3-5.38-5.7-10.22-5.7-4.93 0-7.13 2.4-10.23 5.7-3.47 3.7-7.76 8.3-15.98 8.3-8.21 0-12.5-4.6-15.98-8.3-3.1-3.3-5.38-5.7-10.22-5.7-4.84 0-7.12 2.4-10.23 5.7-3.47 3.7-7.76 8.3-15.98 8.3-8.21 0-12.5-4.6-15.97-8.3-3.1-3.3-5.4-5.7-10.23-5.7-4.93 0-7.12 2.4-10.23 5.7-3.47 3.7-7.76 8.3-15.97 8.3-8.22 0-12.51-4.6-15.98-8.3-3.1-3.3-5.39-5.7-10.23-5.7-4.93 0-7.12 2.4-10.23 5.7-3.47 3.7-7.76 8.3-15.97 8.3-8.22 0-12.51-4.6-15.98-8.3-3.1-3.3-5.39-5.7-10.23-5.7-4.93 0-7.12 2.4-10.22 5.7-3.47 3.7-7.76 8.3-15.98 8.3s-12.51-4.6-15.98-8.3c-3.1-3.3-5.39-5.7-10.23-5.7-4.84 0-7.12 2.4-10.22 5.7-3.47 3.7-7.76 8.3-15.98 8.3s-12.51-4.6-15.98-8.3c-3.1-3.3-5.39-5.7-10.22-5.7-4.94 0-7.13 2.4-10.23 5.7-3.47 3.7-7.76 8.3-15.98 8.3s-12.5-4.6-15.98-8.3c-3.1-3.3-5.38-5.7-10.22-5.7-4.93 0-7.13 2.4-10.23 5.7-3.47 3.7-7.76 8.3-15.98 8.3s-12.5-4.6-15.98-8.3c-3.1-3.3-5.38-5.7-10.22-5.7-4.93 0-7.12 2.4-10.23 5.7-4.29 3.7-8.67 8.3-16.89 8.3s-12.5-4.6-15.98-8.3c-3.1-3.3-5.39-5.7-10.22-5.7-4.93 0-7.13 2.4-10.23 5.7-3.47 3.7-7.76 8.3-15.98 8.3s-12.5-4.6-15.98-8.3c-3.2-3.3-5.48-5.7-10.31-5.7-4.93 0-7.13 2.4-10.23 5.7-3.56 3.7-7.85 8.3-16.07 8.3v-9c4.93 0 7.12-2.4 10.23-5.7 3.47-3.7 7.76-8.3 16.07-8.3 8.21 0 12.5 4.6 15.97 8.3 3.1 3.3 5.4 5.7 10.23 5.7 4.93 0 7.12-2.4 10.23-5.7 3.47-3.7 7.85-8.3 16.07-8.3 8.21 0 12.5 4.6 15.97 8.3 3.1 3.3 5.4 5.7 10.23 5.7 4.93 0 7.12-2.4 10.23-5.7 3.47-3.7 7.76-8.3 15.97-8.3 8.22 0 12.51 4.6 15.98 8.3 3.1 3.3 5.39 5.7 10.23 5.7 4.93 0 7.12-2.4 10.22-5.7 3.47-3.7 7.77-8.3 15.98-8.3 8.22 0 12.51 4.6 15.98 8.3 3.1 3.3 5.39 5.7 10.23 5.7 4.93 0 7.12-2.4 10.22-5.7 3.47-3.7 7.76-8.3 15.98-8.3s12.51 4.6 15.98 8.3c3.1 3.3 5.39 5.7 10.23 5.7 4.93 0 7.12-2.4 10.22-5.7 3.47-3.7 7.76-8.3 15.98-8.3s12.5 4.6 15.98 8.3c3.1 3.3 5.39 5.7 10.22 5.7 4.94 0 7.13-2.4 10.23-5.7 3.47-3.7 7.76-8.3 15.98-8.3s12.5 4.6 15.98 8.3c3.1 3.3 5.38 5.7 10.22 5.7 4.84 0 7.13-2.4 10.23-5.7 3.47-3.7 7.76-8.3 15.98-8.3 8.21 0 12.5 4.6 15.98 8.3 3.1 3.3 5.38 5.7 10.22 5.7 4.93 0 7.12-2.4 10.23-5.7 3.47-3.7 7.76-8.3 15.98-8.3 8.21 0 12.5 4.6 15.97 8.3 3.1 3.3 5.4 5.7 10.23 5.7 4.93 0 7.12-2.4 10.23-5.7 3.47-3.7 7.76-8.3 15.98-8.3 8.21 0 12.5 4.6 15.97 8.3 3.1 3.3 5.39 5.7 10.23 5.7 4.93 0 7.12-2.4 10.23-5.7 3.47-3.7 7.76-8.3 15.97-8.3 8.22 0 12.51 4.6 15.98 8.3 3.1 3.3 5.39 5.7 10.23 5.7 4.93 0 7.12-2.4 10.22-5.7 3.47-3.7 7.76-8.3 15.98-8.3s12.51 4.6 15.98 8.3c3.1 3.3 5.39 5.7 10.23 5.7 4.93 0 7.12-2.4 10.22-5.7 3.47-3.7 7.76-8.3 15.98-8.3s12.51 4.6 15.98 8.3c3.1 3.3 5.39 5.7 10.23 5.7 4.93 0 7.12-2.4 10.22-5.7 3.47-3.7 7.76-8.3 15.98-8.3s12.5 4.6 15.98 8.3c3.1 3.3 5.39 5.7 10.22 5.7 4.94 0 7.13-2.4 10.23-5.7 4.57-3.7 8.86-8.3 17.17-8.3 8.21 0 12.5 4.6 15.97 8.3 3.1 3.3 5.4 5.7 10.23 5.7 4.84 0 7.12-2.4 10.23-5.7 3.47-3.7 7.76-8.3 15.97-8.3 8.22 0 12.51 4.6 15.98 8.3 3.1 3.3 5.39 5.7 10.23 5.7 4.84 0 7.12-2.4 10.23-5.7 3.56-3.7 7.85-8.3 16.16-8.3 8.3 0 12.5 4.6 15.97 8.3 3.1 3.3 5.4 5.7 10.23 5.7 4.84 0 7.12-2.4 10.23-5.7 3.47-3.7 7.76-8.3 15.97-8.3 8.22 0 12.51 4.6 15.98 8.3 3.1 3.3 5.39 5.7 10.23 5.7 4.93 0 7.12-2.4 10.23-5.7 3.46-3.7 7.76-8.3 15.97-8.3 8.22 0 12.51 4.6 15.98 8.3 3.1 3.3 5.39 5.7 10.23 5.7 4.84 0 7.12-2.4 10.22-5.7 3.47-3.7 7.76-8.3 15.98-8.3s12.51 4.6 15.98 8.3c3.1 3.3 5.39 5.7 10.23 5.7v9h.27Z" fill="#F1F1F1"/></svg>